<svg width="323.876" height="323.876" viewBox="0 0 323.876 323.876" fill="none" xmlns="http://www.w3.org/2000/svg" class="w-full max-w-[450px] h-auto transition-transform duration-500 group-hover:scale-105"><g transform="translate(0 162.093)"><g transform="translate(71.904 -126.203)"><path d="M17.99,26.984,36,44.991,54,63,72.01,81,90.017,63l17.945-17.945,17.945-17.945L143.851,9.163,161.86-8.843,143.851-26.85,125.844-8.843,107.9,9.1,89.955,27.046,72.01,44.991,54,26.984,36,8.978,17.99-9.029-.017-27.036-18.024-9.029-.017,8.978Z" transform="translate(18.024 27.036)" fill="#0000A3"></path></g><g transform="translate(107.792 -162.093)"><path d="M9,0-9.013,18.007,9,36.014,27,54.02,45.009,72.027,63.016,54.02,80.961,36.075,98.968,18.069,80.961.062,62.954,18.069,45.009,36.014,27,18.007Z" transform="translate(9.013)" fill="#0000A3"></path></g><g transform="translate(0 -54.299)"><path d="M0,8.995,18.007,27,36.014,45.008,18.067,62.953.062,80.96l18,18.007L36.075,80.96,54.082,62.953,72.027,45.008,54.02,27,36.014,8.995,18.007-9.012Z" transform="translate(0 9.012)" fill="#0000A3"></path></g><g transform="translate(35.952 -90.25)"><path d="M27.046,71.9h0L44.991,53.951,62.936,36.007,80.943,18,62.936-.007,44.929-18.014,26.922-36.02,8.916-54.027-9.091-72.034-27.1-54.027-9.091-36.02,8.916-18.014,26.922-.007,44.929,18,26.984,35.945,9.039,53.889-8.967,71.9-26.974,89.9-8.967,107.91,9.039,89.9Z" transform="translate(27.098 72.034)" fill="#0000A3"></path></g><g transform="translate(72.088 17.79)"><path d="M71.9,26.984,53.89,8.978,35.884-9.029,17.877-27.036-.13-9.029-18.077,8.916-36.019,26.86-54.026,44.867-72.035,62.874l18.009,18.007,18.007-18.007,18.007-18.007L-.068,26.922,17.877,8.978,35.884,26.984,53.89,44.991,71.9,63,89.9,81,107.911,63,89.9,44.991Z" transform="translate(72.035 27.036)" fill="#0000A3"></path></g><g transform="translate(108.102 89.755)"><path d="M17.99,8.964-.017,26.973l-18.007,18L-.017,62.986,17.99,44.977,35.934,27.033,53.941,45.041,71.948,63.048,89.955,45.041,71.948,27.033l-18.007-18L35.934-8.981Z" transform="translate(18.024 8.981)" fill="#0000A3"></path></g><g transform="translate(179.945 -90.003)"><path d="M35.979,62.871,17.972,44.864-.034,26.857,17.91,8.912,35.855-9.033,53.8-26.977,71.807-44.986l-18.007-18-18.007,18L17.848-27.039-.1-9.095-18.041,8.85-36.048,26.857l18.007,18.007L-.034,62.871,17.972,80.877,35.979,98.884l18.007,18.007L71.993,98.884,53.986,80.877Z" transform="translate(36.048 62.991)" fill="#0000A3"></path></g><g transform="translate(251.847 -53.992)"><path d="M17.96,9,.015,26.941-17.994,44.947.015,62.954,18.022,80.961,36.028,98.968,54.035,80.961,36.028,62.954,18.022,44.947,35.966,27,53.971,9l-18-18.009Z" transform="translate(17.994 9.013)" fill="#0000A3"></path></g></g></svg>